<svg width="130" height="52" viewBox="0 0 130 52" fill="none" xmlns="http://www.w3.org/2000/svg">
<path d="M2.6 40C1.86667 40 1.25 39.75 0.75 39.25C0.25 38.75 7.45058e-08 38.1333 7.45058e-08 37.4V3.55C7.45058e-08 2.78333 0.25 2.16666 0.75 1.7C1.25 1.2 1.86667 0.949999 2.6 0.949999H11.65C14.5167 0.949999 17.1167 1.43333 19.45 2.4C21.8167 3.33333 23.8667 4.68333 25.6 6.45C27.3333 8.18333 28.6667 10.2333 29.6 12.6C30.5333 14.9667 31 17.5833 31 20.45C31 23.3167 30.5333 25.95 29.6 28.35C28.6667 30.7167 27.3333 32.7833 25.6 34.55C23.8667 36.2833 21.8167 37.6333 19.45 38.6C17.1167 39.5333 14.5167 40 11.65 40H2.6ZM5.2 35.4H11.65C14.45 35.4 16.9167 34.7667 19.05 33.5C21.2167 32.2 22.9167 30.4333 24.15 28.2C25.3833 25.9333 26 23.35 26 20.45C26 17.5167 25.3833 14.9333 24.15 12.7C22.9167 10.4667 21.2167 8.71667 19.05 7.45C16.9167 6.18333 14.45 5.55 11.65 5.55H5.2V35.4ZM51.0602 40.2C48.3602 40.2 45.9768 39.6167 43.9102 38.45C41.8435 37.25 40.2102 35.6167 39.0102 33.55C37.8435 31.45 37.2602 29.05 37.2602 26.35C37.2602 23.6167 37.8435 21.2167 39.0102 19.15C40.2102 17.05 41.8435 15.4167 43.9102 14.25C45.9768 13.05 48.3602 12.45 51.0602 12.45C53.7268 12.45 56.0935 13.05 58.1602 14.25C60.2268 15.4167 61.8435 17.05 63.0102 19.15C64.2102 21.2167 64.8102 23.6167 64.8102 26.35C64.8102 29.05 64.2268 31.45 63.0602 33.55C61.8935 35.6167 60.2768 37.25 58.2102 38.45C56.1435 39.6167 53.7602 40.2 51.0602 40.2ZM51.0602 35.7C52.7935 35.7 54.3268 35.3 55.6602 34.5C56.9935 33.7 58.0268 32.6 58.7602 31.2C59.5268 29.8 59.9102 28.1833 59.9102 26.35C59.9102 24.5167 59.5268 22.9 58.7602 21.5C58.0268 20.0667 56.9935 18.95 55.6602 18.15C54.3268 17.35 52.7935 16.95 51.0602 16.95C49.3268 16.95 47.7935 17.35 46.4602 18.15C45.1268 18.95 44.0768 20.0667 43.3102 21.5C42.5435 22.9 42.1602 24.5167 42.1602 26.35C42.1602 28.1833 42.5435 29.8 43.3102 31.2C44.0768 32.6 45.1268 33.7 46.4602 34.5C47.7935 35.3 49.3268 35.7 51.0602 35.7ZM86.1504 40.2C83.5504 40.2 81.2171 39.6 79.1504 38.4C77.0837 37.1667 75.4504 35.5 74.2504 33.4C73.0504 31.3 72.4337 28.9333 72.4004 26.3V3.5C72.4004 2.73333 72.6337 2.11667 73.1004 1.65C73.6004 1.18333 74.2171 0.949999 74.9504 0.949999C75.7171 0.949999 76.3337 1.18333 76.8004 1.65C77.2671 2.11667 77.5004 2.73333 77.5004 3.5V17C78.6671 15.6 80.0671 14.5 81.7004 13.7C83.3671 12.8667 85.1837 12.45 87.1504 12.45C89.5837 12.45 91.7671 13.0667 93.7004 14.3C95.6337 15.5 97.1504 17.15 98.2504 19.25C99.3837 21.3167 99.9504 23.6667 99.9504 26.3C99.9504 28.9333 99.3337 31.3 98.1004 33.4C96.9004 35.5 95.2671 37.1667 93.2004 38.4C91.1337 39.6 88.7837 40.2 86.1504 40.2ZM86.1504 35.7C87.8504 35.7 89.3671 35.3 90.7004 34.5C92.0337 33.6667 93.0837 32.5333 93.8504 31.1C94.6504 29.6667 95.0504 28.0667 95.0504 26.3C95.0504 24.5 94.6504 22.9 93.8504 21.5C93.0837 20.1 92.0337 19 90.7004 18.2C89.3671 17.3667 87.8504 16.95 86.1504 16.95C84.4837 16.95 82.9671 17.3667 81.6004 18.2C80.2671 19 79.2171 20.1 78.4504 21.5C77.6837 22.9 77.3004 24.5 77.3004 26.3C77.3004 28.0667 77.6837 29.6667 78.4504 31.1C79.2171 32.5333 80.2671 33.6667 81.6004 34.5C82.9671 35.3 84.4837 35.7 86.1504 35.7ZM110.943 52C110.61 52 110.21 51.9 109.743 51.7C108.276 51.0333 107.876 49.9833 108.543 48.55L123.793 14.1C124.46 12.7 125.51 12.3 126.943 12.9C128.443 13.5333 128.86 14.5833 128.193 16.05L112.893 50.45C112.493 51.4833 111.843 52 110.943 52ZM116.843 38.9C116.21 39.1667 115.61 39.2 115.043 39C114.51 38.7667 114.076 38.3333 113.743 37.7L102.293 15.95C101.96 15.3167 101.91 14.7167 102.143 14.15C102.41 13.55 102.86 13.1167 103.493 12.85C104.126 12.5833 104.726 12.5667 105.293 12.8C105.86 13 106.293 13.4167 106.593 14.05L117.543 35.8C117.876 36.4333 117.993 37.05 117.893 37.65C117.826 38.2167 117.476 38.6333 116.843 38.9Z" fill="#FFBC11"/>
</svg>
